<svg xmlns="http://www.w3.org/2000/svg" width="54" height="54" viewBox="0 0 54 54"><defs><style>.a{fill:#f7f7f7;}</style></defs><g transform="translate(-770 -6108)"><circle class="a" cx="27" cy="27" r="27" transform="translate(770 6108)"/><path d="M19.62,4.982a1.033,1.033,0,0,0-1.468,1.454L25.6,13.881H1.028A1.023,1.023,0,0,0,0,14.91a1.034,1.034,0,0,0,1.028,1.043H25.6l-7.445,7.432a1.054,1.054,0,0,0,0,1.468,1.029,1.029,0,0,0,1.468,0l9.208-9.208a1.011,1.011,0,0,0,0-1.454Z" transform="translate(782 6119.981)"/></g></svg>